<?xml version="1.0" standalone="no"?>
<!DOCTYPE svg PUBLIC "-//W3C//DTD SVG 20010904//EN"
 "http://www.w3.org/TR/2001/REC-SVG-20010904/DTD/svg10.dtd">
<svg version="1.0" xmlns="http://www.w3.org/2000/svg"
 width="196.000000pt" height="196.000000pt" viewBox="0 0 196.000000 196.000000"
 preserveAspectRatio="xMidYMid meet">
<metadata>
Created by potrace 1.11, written by Peter Selinger 2001-2013
</metadata>
<g transform="translate(0.000000,196.000000) scale(0.100000,-0.100000)"
fill="#000000" stroke="none">
<path d="M825 1560 c-120 -29 -290 -185 -425 -388 -13 -20 -25 -23 -105 -26
-173 -6 -288 -82 -280 -185 4 -49 34 -74 88 -74 24 0 50 3 56 8 19 11 29 48
20 72 -11 30 -2 51 30 67 32 17 125 32 120 20 -2 -5 -25 -49 -50 -99 -133
-259 -188 -498 -135 -580 20 -31 67 -53 122 -57 34 -3 39 0 36 17 -18 136 40
389 151 653 l31 74 45 -7 c25 -4 69 -16 99 -27 40 -15 52 -24 48 -36 -7 -23
-24 -99 -31 -142 -3 -19 -15 -73 -25 -120 -11 -47 -22 -96 -24 -110 -2 -14 -9
-45 -15 -70 -17 -73 -22 -70 92 -70 l104 0 11 53 c6 28 28 129 48 222 20 94
45 213 56 265 11 52 21 102 23 110 13 58 25 109 29 130 17 86 27 132 40 190 9
36 16 72 16 82 0 31 -98 48 -175 28z m-54 -122 c-5 -13 -15 -52 -21 -88 -7
-36 -18 -86 -26 -113 -7 -26 -13 -50 -13 -52 1 -22 -15 -96 -20 -100 -6 -3
-158 33 -169 41 -6 4 39 86 90 165 67 106 186 215 159 147z"/>
<path d="M1365 1556 c-115 -29 -218 -87 -296 -167 -59 -62 -82 -109 -87 -184
-5 -80 23 -125 88 -141 54 -14 63 -8 51 32 -10 37 -5 125 10 174 20 62 68 127
122 164 59 40 73 44 81 19 6 -21 56 -211 61 -233 2 -8 15 -62 30 -120 15 -58
28 -113 30 -123 2 -9 6 -21 9 -26 3 -5 -8 -76 -25 -157 -17 -82 -33 -160 -35
-174 -3 -14 -11 -51 -18 -82 l-13 -58 117 0 117 0 13 63 c7 34 13 69 15 77 56
283 80 355 251 728 52 113 74 172 74 197 0 22 -4 25 -37 25 l-38 0 -104 -255
c-90 -220 -122 -281 -121 -232 0 7 -25 119 -57 250 l-57 237 -65 -1 c-37 0
-88 -6 -116 -13z"/>
</g>
</svg>
